<svg width="24" height="18" viewBox="0 0 24 18" fill="none" xmlns="http://www.w3.org/2000/svg">
<path d="M19.5303 0.114677C20.1991 0.114677 20.7069 0.113894 21.1113 0.146904C21.517 0.180046 21.8279 0.24727 22.1006 0.386162C22.5702 0.625433 22.9521 1.00741 23.1914 1.47698C23.3304 1.74971 23.3975 2.0605 23.4307 2.46624C23.4637 2.8708 23.4639 3.379 23.4639 4.04827V13.9516C23.4639 14.6208 23.4637 15.1291 23.4307 15.5336C23.3975 15.9394 23.3304 16.2502 23.1914 16.5229C22.9521 16.9925 22.5702 17.3744 22.1006 17.6137C21.8279 17.7526 21.517 17.8198 21.1113 17.853C20.7069 17.886 20.1991 17.8862 19.5303 17.8862H4.83398C4.16472 17.8862 3.65651 17.886 3.25195 17.853C2.84621 17.8198 2.53542 17.7527 2.2627 17.6137C1.79309 17.3744 1.41116 16.9925 1.17188 16.5229C1.03292 16.2502 0.965766 15.9393 0.932617 15.5336C0.899583 15.1291 0.900391 14.6208 0.900391 13.9516V4.04827C0.900391 3.37901 0.899572 2.87079 0.932617 2.46624C0.965767 2.0605 1.03292 1.74971 1.17188 1.47698C1.41117 1.00738 1.79309 0.62546 2.2627 0.386162C2.53542 0.247202 2.84621 0.180054 3.25195 0.146904C3.65651 0.113859 4.16473 0.114677 4.83398 0.114677H19.5303ZM2.77344 15.7065C2.84012 15.8373 2.9465 15.9441 3.07715 16.0112L3.0791 16.0121C3.08388 16.0138 3.09668 16.0176 3.11914 16.0229C3.16746 16.0343 3.25281 16.0491 3.39844 16.061C3.7128 16.0866 4.13504 16.0883 4.83398 16.0883H19.5303C20.2291 16.0883 20.6515 16.0866 20.9658 16.061C21.1112 16.0491 21.1959 16.0342 21.2441 16.0229C21.2668 16.0175 21.2794 16.0139 21.2842 16.0121L21.2852 16.0112V16.0121L21.3789 15.9545C21.4379 15.9116 21.4893 15.8592 21.5322 15.8002L21.5898 15.7065C21.5916 15.7017 21.5962 15.6891 21.6016 15.6664C21.6129 15.6181 21.6278 15.5328 21.6396 15.3871C21.6653 15.0728 21.666 14.6504 21.666 13.9516V7.50237H2.69727V13.9516C2.69727 14.6504 2.69895 15.0728 2.72461 15.3871C2.73651 15.5328 2.75132 15.6181 2.7627 15.6664L2.77344 15.7065ZM10.584 10.4975C11.0803 10.4975 11.4833 10.8997 11.4834 11.3959C11.4834 11.8923 11.0803 12.2944 10.584 12.2944H5.39258C4.89637 12.2942 4.49414 11.8922 4.49414 11.3959C4.49424 10.8998 4.89643 10.4976 5.39258 10.4975H10.584ZM4.83398 1.91155C4.13505 1.91155 3.7128 1.91322 3.39844 1.9389C3.25281 1.95079 3.16746 1.9656 3.11914 1.97698C3.09666 1.98229 3.08388 1.98602 3.0791 1.98772C3.07738 1.98835 3.07636 1.98862 3.07617 1.9887H3.07715C2.94647 2.05574 2.84013 2.1625 2.77344 2.29339C2.77173 2.29817 2.76801 2.31094 2.7627 2.33343C2.75132 2.38175 2.73651 2.4671 2.72461 2.61272C2.69894 2.92708 2.69727 3.34934 2.69727 4.04827V5.7055H21.666V4.04827C21.666 3.34937 21.6653 2.92708 21.6396 2.61272C21.6278 2.4671 21.6129 2.38175 21.6016 2.33343C21.5962 2.31085 21.5916 2.29817 21.5898 2.29339L21.5322 2.19964C21.4893 2.14064 21.4379 2.08828 21.3789 2.04534L21.2852 1.98772H21.2842C21.2794 1.98601 21.2668 1.98233 21.2441 1.97698C21.1959 1.96561 21.1112 1.95079 20.9658 1.9389C20.6515 1.91322 20.2291 1.91155 19.5303 1.91155H4.83398Z" fill="#1F1F1F" stroke="#1F1F1F" stroke-width="0.2" stroke-linecap="round"/>
</svg>
